<svg width="154" height="23" viewBox="0 0 154 23" fill="none" xmlns="http://www.w3.org/2000/svg">
<path d="M0.16 22V0.91H4.24V22H0.16ZM3.16 13.36V9.73H13.78V13.36H3.16ZM3.16 4.51V0.91H14.29V4.51H3.16ZM17.0838 22V7.51H21.0438V22H17.0838ZM19.0638 5.17C18.4238 5.17 17.8938 4.96 17.4738 4.54C17.0538 4.1 16.8438 3.56 16.8438 2.92C16.8438 2.3 17.0538 1.77 17.4738 1.33C17.8938 0.889999 18.4238 0.669999 19.0638 0.669999C19.7238 0.669999 20.2538 0.889999 20.6538 1.33C21.0738 1.77 21.2838 2.3 21.2838 2.92C21.2838 3.56 21.0738 4.1 20.6538 4.54C20.2538 4.96 19.7238 5.17 19.0638 5.17ZM32.5652 22.3C31.5252 22.3 30.5852 22.08 29.7452 21.64C28.9052 21.2 28.2352 20.6 27.7352 19.84C27.2352 19.08 26.9652 18.23 26.9252 17.29V12.13C26.9652 11.19 27.2352 10.35 27.7352 9.61C28.2552 8.85 28.9352 8.26 29.7752 7.84C30.6152 7.42 31.5452 7.21 32.5652 7.21C33.9052 7.21 35.1052 7.54 36.1652 8.2C37.2252 8.86 38.0552 9.76 38.6552 10.9C39.2752 12.04 39.5852 13.33 39.5852 14.77C39.5852 16.19 39.2752 17.47 38.6552 18.61C38.0552 19.75 37.2252 20.65 36.1652 21.31C35.1052 21.97 33.9052 22.3 32.5652 22.3ZM31.9052 18.67C32.6252 18.67 33.2552 18.51 33.7952 18.19C34.3552 17.85 34.7852 17.39 35.0852 16.81C35.4052 16.21 35.5652 15.52 35.5652 14.74C35.5652 13.98 35.4052 13.31 35.0852 12.73C34.7852 12.13 34.3552 11.67 33.7952 11.35C33.2352 11.01 32.5952 10.84 31.8752 10.84C31.1552 10.84 30.5152 11.01 29.9552 11.35C29.4152 11.67 28.9852 12.13 28.6652 12.73C28.3652 13.31 28.2152 13.98 28.2152 14.74C28.2152 15.52 28.3652 16.21 28.6652 16.81C28.9852 17.39 29.4252 17.85 29.9852 18.19C30.5452 18.51 31.1852 18.67 31.9052 18.67ZM24.5252 22V0.309999H28.4552V11.08L27.7952 14.56L28.4252 18.1V22H24.5252ZM49.0919 22.3C47.5719 22.3 46.2219 21.98 45.0419 21.34C43.8619 20.68 42.9219 19.78 42.2219 18.64C41.5419 17.5 41.2019 16.2 41.2019 14.74C41.2019 13.3 41.5319 12.02 42.1919 10.9C42.8719 9.76 43.7919 8.86 44.9519 8.2C46.1119 7.52 47.4019 7.18 48.8219 7.18C50.2219 7.18 51.4519 7.5 52.5119 8.14C53.5919 8.76 54.4319 9.62 55.0319 10.72C55.6519 11.8 55.9619 13.03 55.9619 14.41C55.9619 14.67 55.9419 14.94 55.9019 15.22C55.8819 15.48 55.8319 15.78 55.7519 16.12L43.5719 16.15V13.21L53.9219 13.18L52.3319 14.41C52.2919 13.55 52.1319 12.83 51.8519 12.25C51.5919 11.67 51.2019 11.23 50.6819 10.93C50.1819 10.61 49.5619 10.45 48.8219 10.45C48.0419 10.45 47.3619 10.63 46.7819 10.99C46.2019 11.33 45.7519 11.82 45.4319 12.46C45.1319 13.08 44.9819 13.82 44.9819 14.68C44.9819 15.56 45.1419 16.33 45.4619 16.99C45.8019 17.63 46.2819 18.13 46.9019 18.49C47.5219 18.83 48.2419 19 49.0619 19C49.8019 19 50.4719 18.88 51.0719 18.64C51.6719 18.38 52.1919 18 52.6319 17.5L54.9419 19.81C54.2419 20.63 53.3819 21.25 52.3619 21.67C51.3619 22.09 50.2719 22.3 49.0919 22.3ZM58.3923 22V7.51H62.3223V22H58.3923ZM62.3223 13.99L60.7923 12.97C60.9723 11.19 61.4923 9.79 62.3523 8.77C63.2123 7.73 64.4523 7.21 66.0723 7.21C66.7723 7.21 67.4023 7.33 67.9623 7.57C68.5223 7.79 69.0323 8.16 69.4923 8.68L67.0323 11.5C66.8123 11.26 66.5423 11.08 66.2223 10.96C65.9223 10.84 65.5723 10.78 65.1723 10.78C64.3323 10.78 63.6423 11.05 63.1023 11.59C62.5823 12.11 62.3223 12.91 62.3223 13.99Z" fill="white"/>
<path d="M71.7002 22V0.819999H75.0602L83.4002 13.81H81.6902L90.0002 0.819999H93.3902V22H88.6802V8.77L89.5202 8.98L84.0902 17.44H80.9702L75.5702 8.98L76.3802 8.77V22H71.7002ZM104.232 22.33C102.652 22.33 101.242 22.01 100.002 21.37C98.7821 20.71 97.8221 19.8 97.1221 18.64C96.4221 17.48 96.0721 16.17 96.0721 14.71C96.0721 13.25 96.4121 11.95 97.0921 10.81C97.7921 9.65 98.7321 8.74 99.9121 8.08C101.092 7.42 102.422 7.09 103.902 7.09C105.342 7.09 106.612 7.4 107.712 8.02C108.812 8.64 109.672 9.5 110.292 10.6C110.932 11.7 111.252 12.96 111.252 14.38C111.252 14.64 111.232 14.92 111.192 15.22C111.172 15.5 111.122 15.83 111.042 16.21L98.4721 16.24V13.09L109.092 13.06L107.112 14.38C107.092 13.54 106.962 12.85 106.722 12.31C106.482 11.75 106.122 11.33 105.642 11.05C105.182 10.75 104.612 10.6 103.932 10.6C103.212 10.6 102.582 10.77 102.042 11.11C101.522 11.43 101.112 11.89 100.812 12.49C100.532 13.09 100.392 13.82 100.392 14.68C100.392 15.54 100.542 16.28 100.842 16.9C101.162 17.5 101.602 17.97 102.162 18.31C102.742 18.63 103.422 18.79 104.202 18.79C104.922 18.79 105.572 18.67 106.152 18.43C106.732 18.17 107.242 17.79 107.682 17.29L110.202 19.81C109.482 20.65 108.612 21.28 107.592 21.7C106.572 22.12 105.452 22.33 104.232 22.33ZM119.678 22.3C118.298 22.3 117.068 21.97 115.988 21.31C114.928 20.65 114.088 19.75 113.468 18.61C112.868 17.47 112.568 16.17 112.568 14.71C112.568 13.25 112.868 11.95 113.468 10.81C114.088 9.67 114.928 8.77 115.988 8.11C117.068 7.45 118.298 7.12 119.678 7.12C120.678 7.12 121.578 7.31 122.378 7.69C123.198 8.07 123.868 8.6 124.388 9.28C124.928 9.94 125.228 10.7 125.288 11.56V17.71C125.228 18.57 124.938 19.35 124.418 20.05C123.898 20.73 123.228 21.28 122.408 21.7C121.588 22.1 120.678 22.3 119.678 22.3ZM120.488 18.16C121.148 18.16 121.718 18.02 122.198 17.74C122.678 17.44 123.058 17.03 123.338 16.51C123.618 15.99 123.758 15.39 123.758 14.71C123.758 14.03 123.618 13.44 123.338 12.94C123.078 12.42 122.698 12.01 122.198 11.71C121.718 11.41 121.158 11.26 120.518 11.26C119.878 11.26 119.308 11.41 118.808 11.71C118.328 12.01 117.938 12.42 117.638 12.94C117.358 13.46 117.218 14.05 117.218 14.71C117.218 15.37 117.358 15.96 117.638 16.48C117.918 17 118.308 17.41 118.808 17.71C119.308 18.01 119.868 18.16 120.488 18.16ZM128.078 22H123.578V18.07L124.268 14.53L123.488 10.99V0.22H128.078V22ZM131.309 22V7.42H135.899V22H131.309ZM133.619 5.41C132.899 5.41 132.299 5.17 131.819 4.69C131.359 4.19 131.129 3.59 131.129 2.89C131.129 2.17 131.359 1.57 131.819 1.09C132.299 0.609999 132.899 0.37 133.619 0.37C134.339 0.37 134.929 0.609999 135.389 1.09C135.849 1.57 136.079 2.17 136.079 2.89C136.079 3.59 135.849 4.19 135.389 4.69C134.929 5.17 134.339 5.41 133.619 5.41ZM145.222 22.3C143.882 22.3 142.682 21.97 141.622 21.31C140.582 20.65 139.752 19.75 139.132 18.61C138.532 17.47 138.232 16.17 138.232 14.71C138.232 13.25 138.532 11.95 139.132 10.81C139.752 9.67 140.582 8.77 141.622 8.11C142.682 7.45 143.882 7.12 145.222 7.12C146.202 7.12 147.082 7.31 147.862 7.69C148.662 8.07 149.312 8.6 149.812 9.28C150.312 9.94 150.592 10.7 150.652 11.56V17.86C150.592 18.72 150.312 19.49 149.812 20.17C149.332 20.83 148.692 21.35 147.892 21.73C147.092 22.11 146.202 22.3 145.222 22.3ZM146.152 18.16C147.132 18.16 147.922 17.84 148.522 17.2C149.122 16.54 149.422 15.71 149.422 14.71C149.422 14.03 149.282 13.43 149.002 12.91C148.742 12.39 148.362 11.99 147.862 11.71C147.382 11.41 146.822 11.26 146.182 11.26C145.542 11.26 144.972 11.41 144.472 11.71C143.992 11.99 143.602 12.39 143.302 12.91C143.022 13.43 142.882 14.03 142.882 14.71C142.882 15.37 143.022 15.96 143.302 16.48C143.582 17 143.972 17.41 144.472 17.71C144.972 18.01 145.532 18.16 146.152 18.16ZM149.242 22V18.07L149.932 14.53L149.242 10.99V7.42H153.742V22H149.242Z" fill="url(#paint0_linear_82_493)"/>
<defs>
<linearGradient id="paint0_linear_82_493" x1="-0.623096" y1="-8.97436" x2="140.515" y2="61.1612" gradientUnits="userSpaceOnUse">
<stop stop-color="#37CCFE"/>
<stop offset="1" stop-color="#3A70F0"/>
</linearGradient>
</defs>
</svg>
